<svg

   xmlns="http://www.w3.org/2000/svg"
   
   width="500"
   height="500"
   id="svg2"
   
   version="1.1"
   viewBox="0 0 200 50">
   
   

<path
     d="m 96.29,21.14 -2.15,0 -1.39,1.39 -0.28,1.67 -2.22,0.28 -2.23,-1.67 -3.9,0 -2.22,1.67 -2.23,1.39 -2.29,0.11 0,0 0.02,-0.61 0.17,-0.37 -0.04,-0.63 -0.73,-4.05 -0.23,-0.61 -0.15,-2.92 0.14,-0.86 0.4,-2.07 -0.37,-0.55 -0.36,-0.37 -0.47,-0.36 -0.13,-0.05 0.22,-0.2 0.33,-0.18 0.55,-0.05 1.12,0.12 0.69,0.04 0.32,-0.02 0.65,-0.12 2.02,-0.76 0.46,-0.31 L 83.28,9.6899998 83.61,9.31 84.29,7.93 84.6,7.13 84.67,6.64 84.06,4.39 83.93,4.11 83.7,3.89 83.53,3.62 l 0.06,-0.61 0.16,-0.4 0.28,-0.43 0.63,0.07 1.23,0.1 2.62,-2.35 0.18,1.89 1.58,1.4 0.29,0.27 0.4,0.78 0.13,0.41 -0.04,0.99 0.09,0.52 0.13,0.43 0.21,0.35 2.24,0.73 0.88,0.15 -0.02,0.44 -0.13,0.28 -0.52,0.32 -0.29,0.25 -0.14,0.3699998 0.19,0.4400002 0.3,0.31 0.34,0.41 0.23,2.44 0.2,0.33 0.3,0.4 0.13,0.27 0.1,0.36 -0.03,0.36 -0.1,0.78 0.05,0.77 0.06,0.7 0.34,1.26 0.7,1.54 0.27,0.55"
     title="Arica y Parinacota" stroke="black" fill="white" stroke-width="0.2"
     id="CL-AP" />
	 
	 <path
     d="m 96.29,21.14 -2.15,0 -1.39,1.39 -0.28,1.67 -2.22,0.28 -2.23,-1.67 -3.9,0 -2.22,1.67 -2.23,1.39 -2.29,0.11 0,0 "
     title="Arica y Parinacota" stroke="red" fill="white" stroke-width="0.2"
     id="CL-AP" />
	 
	 <path
     d="m 77.38,25.98 0.02,-0.61 0.17,-0.37 -0.04,-0.63 -0.73,-4.05 -0.23,-0.61 -0.15,-2.92 0.14,-0.86 0.4,-2.07 -0.37,-0.55 -0.36,-0.37 -0.47,-0.36 -0.13,-0.05 0.22,-0.2 0.33,-0.18 0.55,-0.05 1.12,0.12 0.69,0.04 0.32,-0.02 0.65,-0.12 2.02,-0.76 0.46,-0.31 L 83.28,9.6899998 83.61,9.31 84.29,7.93 84.6,7.13 84.67,6.64 84.06,4.39 83.93,4.11 83.7,3.89 83.53,3.62 l 0.06,-0.61 0.16,-0.4 0.28,-0.43 0.63,0.07 1.23,0.1 2.62,-2.35 0.18,1.89 1.58,1.4 0.29,0.27 0.4,0.78 0.13,0.41 -0.04,0.99 0.09,0.52 0.13,0.43 0.21,0.35 2.24,0.73 0.88,0.15 -0.02,0.44 -0.13,0.28 -0.52,0.32 -0.29,0.25 -0.14,0.3699998 0.19,0.4400002 0.3,0.31 0.34,0.41 0.23,2.44 0.2,0.33 0.3,0.4 0.13,0.27 0.1,0.36 -0.03,0.36 -0.1,0.78 0.05,0.77 0.06,0.7 0.34,1.26 0.7,1.54 0.27,0.55 0,0"
     title="Arica y Parinacota" stroke="green" fill="transparent" stroke-width="0.2"
     id="CL-AP" />
</svg>